# xmcd CD database file
#
# Track frame offsets:
#	150
#	39267
#	69610
#	110717
#	143767
#	176292
#	213682
#
# Disc length: 3325 seconds
#
# Revision: 1
# Processed by: cddbd v1.5PL3 Copyright (c) Steve Scherf et al.
# Submitted via: CDex 1.51
#
DISCID=630cfb07
DTITLE=Super Trombone - Super Trombone
DYEAR=1900
DGENRE=Jazz
TTITLE0=shoot from the hip
TTITLE1=senor blues
TTITLE2=night train
TTITLE3=solar
TTITLE4=doodlin'
TTITLE5=opus de funk
TTITLE6=I don't know what to cry
EXTD=
EXTT0=
EXTT1=
EXTT2=
EXTT3=
EXTT4=
EXTT5=
EXTT6=
PLAYORDER=
